<?xml version="1.0" standalone="no"?>
<!DOCTYPE svg PUBLIC "-//W3C//DTD SVG 20010904//EN"
 "http://www.w3.org/TR/2001/REC-SVG-20010904/DTD/svg10.dtd">
<svg version="1.0" xmlns="http://www.w3.org/2000/svg"
 width="1250.000000pt" height="1251.000000pt" viewBox="0 0 1250.000000 1251.000000"
 preserveAspectRatio="xMidYMid meet">

<g transform="translate(0.000000,1251.000000) scale(0.100000,-0.100000)"
fill="#000000" stroke="none">
<path d="M2115 7689 c-750 -82 -1377 -629 -1554 -1357 -16 -64 -31 -142 -35
-174 -6 -50 -10 -57 -36 -68 -41 -17 -97 -81 -109 -127 -16 -55 -13 -92 10
-143 25 -56 44 -77 89 -100 35 -18 36 -19 53 -128 92 -582 499 -1107 1046
-1347 489 -216 1045 -205 1526 30 195 96 367 221 405 296 27 51 27 137 0 188
-22 44 -107 123 -162 152 -41 21 -138 26 -184 9 -14 -6 -59 -35 -100 -64 -208
-152 -496 -246 -754 -246 -234 0 -528 87 -704 209 l-40 28 -1 69 c0 85 -24
137 -84 179 -39 27 -50 30 -124 31 l-80 0 -34 50 c-86 124 -164 313 -200 484
-24 117 -24 363 0 480 38 180 102 334 200 480 65 98 251 283 351 350 158 106
341 176 536 205 303 46 629 -28 893 -202 108 -72 113 -102 31 -180 -66 -63
-95 -67 -157 -24 -291 199 -702 232 -1024 81 -407 -190 -651 -616 -603 -1056
19 -179 70 -324 164 -469 142 -217 361 -375 612 -441 131 -35 363 -40 489 -10
104 24 214 66 295 114 61 35 68 37 95 26 51 -22 116 -17 176 14 144 73 144
286 -1 360 -53 27 -136 29 -183 6 -78 -39 -110 -91 -117 -189 l-5 -70 -94 -47
c-129 -64 -244 -91 -391 -91 -429 0 -796 301 -886 726 -19 90 -18 259 2 355
55 269 238 504 487 627 134 66 210 86 358 92 192 8 365 -35 508 -127 100 -65
122 -73 186 -74 70 0 105 15 183 83 77 66 106 119 106 196 0 96 -30 139 -159
224 -172 113 -361 185 -570 217 -124 20 -392 13 -505 -11 -183 -40 -355 -113
-512 -217 -112 -74 -301 -260 -375 -368 -108 -158 -185 -337 -225 -522 -30
-140 -32 -448 -4 -578 42 -196 116 -373 219 -526 37 -56 52 -86 46 -95 -5 -8
-9 -40 -9 -72 0 -91 43 -158 122 -192 43 -17 114 -20 153 -5 22 8 33 5 68 -19
132 -90 341 -178 517 -216 113 -24 381 -31 505 -11 216 33 399 104 585 227 68
45 130 79 144 79 33 0 136 -94 136 -125 0 -31 -47 -75 -160 -150 -304 -203
-697 -307 -1042 -276 -428 39 -777 205 -1068 508 -58 60 -134 149 -169 198
-75 107 -178 314 -220 444 -25 78 -71 278 -71 311 0 4 16 18 35 30 112 69 116
260 6 338 -44 31 -44 30 -9 187 127 562 550 1031 1093 1213 426 142 873 109
1277 -96 l132 -67 2 -63 c3 -122 84 -202 207 -202 183 0 271 213 143 345 -60
63 -133 79 -220 50 l-45 -15 -98 54 c-173 97 -367 164 -578 201 -113 20 -371
27 -490 14z m1349 -390 c33 -38 33 -79 2 -116 -19 -22 -32 -28 -66 -28 -82 0
-119 88 -61 146 41 41 90 40 125 -2z m-2823 -1338 c16 -16 29 -39 29 -51 0
-35 -27 -76 -58 -89 -88 -37 -162 72 -95 141 37 39 84 38 124 -1z m2427 -697
c30 -35 30 -87 -3 -119 -52 -53 -149 -16 -149 58 0 85 96 123 152 61z m-1673
-258 c18 -8 38 -23 44 -34 50 -93 -64 -179 -138 -107 -51 50 -19 137 57 154 1
1 18 -5 37 -13z"/>
<path d="M2265 6199 c-60 -14 -128 -69 -156 -126 -33 -67 -38 -174 -12 -234
46 -104 130 -159 241 -159 71 0 124 19 165 58 l27 26 -27 22 -28 22 -32 -29
c-85 -74 -222 -36 -274 76 -44 95 -1 222 92 271 45 23 120 18 163 -11 45 -31
47 -31 75 -1 l22 24 -31 22 c-62 44 -142 58 -225 39z"/>
<path d="M8678 6196 c-58 -21 -83 -41 -102 -79 -31 -66 -14 -151 37 -179 12
-7 53 -24 91 -38 40 -15 75 -34 83 -47 14 -20 13 -24 -11 -48 -31 -31 -76 -33
-123 -4 l-35 22 -35 -36 c-43 -43 -39 -61 19 -87 62 -28 170 -27 222 3 52 29
75 62 82 118 9 68 -15 112 -79 144 -28 14 -58 25 -66 25 -9 0 -31 9 -48 20
-38 23 -45 63 -14 80 28 14 88 12 114 -4 21 -14 24 -12 60 29 l38 44 -42 22
c-53 27 -142 34 -191 15z"/>
<path d="M11919 6200 c-71 -21 -109 -71 -109 -142 0 -80 36 -113 173 -163 62
-22 84 -54 67 -96 -25 -60 -102 -76 -164 -34 -38 26 -58 24 -84 -8 -26 -31 63
-77 148 -77 104 0 166 46 177 130 12 84 -24 128 -129 162 -114 37 -148 89 -93
143 32 33 100 35 140 4 l27 -22 26 27 26 26 -20 21 c-34 33 -124 48 -185 29z"/>
<path d="M2694 6185 c3 -9 44 -74 91 -146 l85 -130 0 -110 0 -109 35 0 35 0 0
105 0 106 90 135 c50 74 94 141 97 149 4 12 -4 15 -35 15 l-40 0 -68 -110
c-38 -60 -71 -110 -74 -110 -3 0 -36 50 -73 110 l-68 110 -41 0 c-32 0 -39 -3
-34 -15z"/>
<path d="M3337 6193 c-4 -3 -7 -118 -7 -255 l0 -248 115 0 c132 0 183 15 217
63 44 62 16 177 -47 193 l-24 6 34 33 c31 29 35 38 35 84 0 97 -62 131 -240
131 -42 0 -80 -3 -83 -7z m195 -63 c61 -17 78 -78 34 -119 -20 -19 -37 -23
-93 -24 l-68 -2 -3 64 c-2 35 -1 70 2 77 6 17 75 18 128 4z m53 -235 c25 -24
32 -65 19 -100 -11 -28 -60 -45 -134 -45 l-70 0 0 85 0 85 80 0 c73 0 83 -3
105 -25z"/>
<path d="M3930 5945 l0 -255 170 0 170 0 0 30 0 30 -135 0 -135 0 0 85 0 85
120 0 120 0 0 30 0 30 -120 0 -120 0 0 75 0 75 125 0 125 0 0 35 0 35 -160 0
-160 0 0 -255z"/>
<path d="M4510 5946 l0 -256 35 0 35 0 0 110 0 110 38 0 c37 -1 38 -2 98 -108
61 -107 62 -107 103 -110 22 -2 41 0 41 4 0 3 -30 54 -66 112 -37 58 -63 107
-57 109 74 25 117 83 110 150 -10 97 -56 124 -219 131 l-118 5 0 -257z m230
174 c23 -12 38 -58 30 -90 -8 -35 -62 -60 -132 -60 l-58 0 0 86 0 87 71 -7
c39 -3 79 -11 89 -16z"/>
<path d="M5420 5947 l0 -257 119 0 c139 0 201 16 260 67 57 48 81 104 81 188
0 83 -25 141 -78 185 -54 44 -112 59 -254 67 l-128 6 0 -256z m268 123 c34
-15 47 -29 63 -65 52 -117 -30 -215 -180 -215 l-41 0 0 150 0 150 58 0 c35 0
74 -8 100 -20z"/>
<path d="M6110 5945 l0 -255 175 0 175 0 0 50 0 50 -120 0 -120 0 0 50 0 49
108 3 107 3 3 53 3 52 -110 0 -111 0 0 45 0 45 115 0 115 0 0 55 0 55 -170 0
-170 0 0 -255z"/>
<path d="M6700 5945 l0 -255 55 0 54 0 3 98 3 97 103 3 102 3 0 49 0 50 -105
0 -105 0 0 50 0 50 115 0 115 0 0 55 0 55 -170 0 -170 0 0 -255z"/>
<path d="M7270 5945 l0 -255 175 0 175 0 0 50 0 50 -120 0 -120 0 0 50 0 49
108 3 107 3 3 53 3 52 -110 0 -111 0 0 45 0 45 115 0 115 0 0 55 0 55 -170 0
-170 0 0 -255z"/>
<path d="M7857 6193 c-4 -3 -7 -118 -7 -255 l0 -248 60 0 60 0 0 177 0 177
108 -176 107 -177 73 -1 72 0 0 256 0 255 -52 -3 -53 -3 -5 -170 -5 -170 -105
172 -105 173 -71 0 c-39 0 -74 -3 -77 -7z"/>
<path d="M9140 5945 l0 -255 175 0 175 0 0 50 0 50 -120 0 -120 0 0 50 0 50
110 0 110 0 0 55 0 55 -110 0 -110 0 0 45 0 45 115 0 115 0 0 55 0 55 -170 0
-170 0 0 -255z"/>
<path d="M10080 5945 l0 -255 150 0 150 0 0 30 0 29 -112 3 -113 3 -3 223 -2
222 -35 0 -35 0 0 -255z"/>
<path d="M10668 6003 c-48 -109 -98 -224 -112 -256 l-26 -58 42 3 c41 3 43 5
64 58 l22 55 122 3 121 3 26 -61 c26 -59 27 -60 66 -60 28 0 38 4 34 13 -3 7
-51 122 -108 255 -103 240 -104 242 -134 242 -30 0 -32 -3 -117 -197z m202
-120 c0 -10 -24 -13 -90 -13 -49 0 -90 2 -90 5 0 5 46 122 75 190 l17 39 44
-104 c24 -58 43 -111 44 -117z"/>
<path d="M11240 5946 l0 -256 108 0 c132 0 172 10 211 56 26 29 31 43 31 84 0
41 -5 55 -31 85 -17 19 -41 35 -53 35 -19 0 -18 2 8 19 55 36 71 102 41 161
-25 48 -66 62 -197 68 l-118 5 0 -257z m237 160 c29 -34 29 -58 1 -91 -20 -22
-34 -27 -95 -32 l-73 -6 0 83 0 83 72 -5 c62 -5 75 -9 95 -32z m12 -203 c12
-10 24 -34 27 -54 5 -29 1 -41 -19 -65 -23 -27 -31 -29 -106 -32 l-81 -4 0 86
0 86 79 0 c60 0 84 -4 100 -17z"/>
</g>
</svg>
